<svg width="216" height="98" viewBox="0 0 216 98" fill="none" xmlns="http://www.w3.org/2000/svg">
<path d="M52.32 88.144C49.504 88.144 47.52 87.024 46.368 84.784C45.216 82.608 44.64 80.048 44.64 77.104C44.64 74.48 44.992 71.888 45.696 69.328C46.464 66.768 47.36 64.816 48.384 63.472C46.656 65.52 44.512 67.856 41.952 70.48C39.392 73.104 36.576 75.632 33.504 78.064C30.432 80.496 27.264 82.512 24 84.112C20.736 85.712 17.504 86.512 14.304 86.512C13.344 86.512 12.384 86.416 11.424 86.224C10.528 86.096 9.632 85.84 8.736 85.456C6.368 84.496 4.608 82.8 3.456 80.368C2.304 77.872 1.728 74.896 1.728 71.44C1.728 67.792 2.336 63.888 3.552 59.728C4.832 55.504 6.688 51.216 9.12 46.864C10.272 44.752 11.552 42.672 12.96 40.624C14.432 38.512 16 36.528 17.664 34.672C15.68 33.776 13.856 32.784 12.192 31.696C10.528 30.544 9.12 29.296 7.968 27.952C7.2 27.056 6.624 26 6.24 24.784C5.856 23.568 5.664 22.384 5.664 21.232C5.664 19.184 6.144 17.84 7.104 17.2C7.424 16.688 7.808 16.432 8.256 16.432C8.832 16.432 9.12 16.784 9.12 17.488C9.12 17.936 8.992 18.416 8.736 18.928C8.416 19.76 8.256 20.528 8.256 21.232C8.256 22.256 8.512 23.216 9.024 24.112C9.536 24.944 10.144 25.744 10.848 26.512C12.896 28.944 15.712 30.96 19.296 32.56C23.392 28.08 27.872 23.952 32.736 20.176C37.664 16.336 42.944 13.264 48.576 10.96C54.208 8.656 60.128 7.504 66.336 7.504C71.52 7.504 75.584 8.656 78.528 10.96C81.472 13.2 82.944 16.112 82.944 19.696C82.944 21.424 82.432 23.312 81.408 25.36C80.384 27.344 78.72 29.296 76.416 31.216C74.112 33.072 71.04 34.704 67.2 36.112C63.424 37.456 58.72 38.384 53.088 38.896C51.104 39.088 49.312 39.248 47.712 39.376C46.176 39.44 44.512 39.472 42.72 39.472C39.392 39.472 36.16 39.248 33.024 38.8C29.952 38.352 26.88 37.648 23.808 36.688C22.656 38.288 21.184 40.464 19.392 43.216C17.664 45.968 15.936 48.912 14.208 52.048C12.48 55.184 11.04 58.16 9.888 60.976C8.864 63.664 8.096 66.128 7.584 68.368C7.072 70.544 6.816 72.496 6.816 74.224C6.816 77.36 7.552 79.728 9.024 81.328C10.496 82.864 12.48 83.632 14.976 83.632C17.408 83.632 20.16 82.928 23.232 81.52C26.368 80.112 29.632 78 33.024 75.184C36.416 72.368 39.712 69.2 42.912 65.68C46.176 62.16 49.152 58.576 51.84 54.928C54.528 51.28 56.704 47.92 58.368 44.848C59.456 42.8 60.512 41.36 61.536 40.528C62.56 39.632 63.424 39.184 64.128 39.184C64.832 39.184 65.376 39.472 65.76 40.048C66.144 40.56 66.336 41.264 66.336 42.16C66.336 43.952 65.536 45.744 63.936 47.536C62.144 49.52 60.384 51.952 58.656 54.832C56.928 57.712 55.392 60.752 54.048 63.952C52.704 67.152 51.744 70.288 51.168 73.36C50.976 74.384 50.848 75.344 50.784 76.24C50.72 77.136 50.688 77.936 50.688 78.64C50.688 81.008 51.04 82.704 51.744 83.728C52.512 84.752 53.504 85.264 54.72 85.264C56.192 85.264 57.888 84.592 59.808 83.248C61.728 81.904 63.584 80.112 65.376 77.872C66.912 75.824 68.384 73.648 69.792 71.344C71.264 69.04 72.608 66.64 73.824 64.144C74.016 63.696 74.272 63.376 74.592 63.184C74.976 62.928 75.232 62.8 75.36 62.8C75.68 62.8 75.84 62.992 75.84 63.376C75.84 63.632 75.744 64.016 75.552 64.528C74.976 65.808 74.208 67.344 73.248 69.136C72.288 70.928 71.232 72.784 70.08 74.704C68.928 76.56 67.744 78.288 66.528 79.888C64.864 82.064 62.752 83.984 60.192 85.648C57.696 87.312 55.072 88.144 52.32 88.144ZM41.856 37.168C45.184 37.168 48.896 36.976 52.992 36.592C58.304 36.144 62.912 35.088 66.816 33.424C70.72 31.76 73.728 29.648 75.84 27.088C77.952 24.528 79.008 21.68 79.008 18.544C79.008 15.728 77.824 13.584 75.456 12.112C73.152 10.64 70.208 9.904 66.624 9.904C60.672 9.904 55.232 11.088 50.304 13.456C45.44 15.76 40.96 18.8 36.864 22.576C32.832 26.352 28.992 30.416 25.344 34.768C30.208 36.368 35.712 37.168 41.856 37.168ZM85.5188 82.096C84.3028 82.096 83.0868 81.616 81.8708 80.656C80.6548 79.632 80.0468 78 80.0468 75.76C80.0468 74.032 80.4628 72.048 81.2948 69.808C82.0628 67.632 83.0868 65.52 84.3668 63.472C85.7108 61.424 86.6708 59.76 87.2468 58.48C87.4388 57.968 87.5348 57.52 87.5348 57.136C87.5348 55.984 86.7988 55.152 85.3268 54.64C83.9188 54.128 82.0628 53.84 79.7588 53.776L78.6068 56.944C77.9028 58.992 76.9108 61.392 75.6308 64.144C74.4148 66.896 73.0388 69.552 71.5028 72.112C70.0308 74.672 68.4947 76.72 66.8947 78.256C66.7667 78.384 66.6067 78.448 66.4147 78.448C66.1587 78.448 65.9987 78.288 65.9347 77.968C65.8067 77.648 65.9347 77.264 66.3187 76.816C68.8148 73.488 71.0548 69.808 73.0388 65.776C75.0228 61.68 76.6868 57.52 78.0308 53.296C79.4388 49.072 80.4628 45.168 81.1028 41.584C81.2948 40.56 81.6467 39.824 82.1588 39.376C82.6708 38.864 83.2148 38.608 83.7908 38.608C84.6228 38.608 85.3908 39.024 86.0948 39.856C86.7988 40.624 87.1508 41.744 87.1508 43.216C87.1508 43.472 87.1188 43.76 87.0548 44.08C87.0548 44.4 87.0228 44.72 86.9588 45.04C86.7028 46.384 85.9348 47.664 84.6548 48.88C83.4388 50.032 82.4468 50.896 81.6788 51.472C82.3188 51.536 82.9908 51.6 83.6948 51.664C84.3988 51.664 85.1668 51.664 85.9988 51.664C89.0068 51.664 91.9828 51.472 94.9268 51.088C95.0548 51.472 95.1188 51.76 95.1188 51.952C95.1188 52.784 94.8628 53.84 94.3508 55.12C93.9028 56.4 93.4228 57.552 92.9108 58.576C92.6548 59.152 92.1428 60.208 91.3748 61.744C90.6068 63.216 89.7748 64.912 88.8788 66.832C87.9828 68.688 87.2148 70.544 86.5748 72.4C85.9988 74.192 85.7108 75.728 85.7108 77.008C85.7108 78.672 86.3508 79.504 87.6308 79.504C88.5908 79.504 89.6468 78.896 90.7988 77.68C91.9508 76.4 93.0708 74.864 94.1588 73.072C95.3108 71.216 96.3348 69.424 97.2308 67.696C98.1908 65.904 98.9268 64.496 99.4388 63.472C99.6948 62.832 100.047 62.512 100.495 62.512C100.751 62.512 100.879 62.736 100.879 63.184C100.879 63.44 100.783 63.824 100.591 64.336C99.8868 65.808 99.0548 67.472 98.0948 69.328C97.1348 71.184 96.0468 73.008 94.8308 74.8C93.6788 76.592 92.3988 78.16 90.9908 79.504C89.6468 80.784 88.1748 81.616 86.5748 82C86.3828 82.064 86.0308 82.096 85.5188 82.096ZM103.734 82C101.302 82 99.51 81.2 98.358 79.6C97.206 77.936 96.63 75.92 96.63 73.552C96.63 70.672 97.302 67.664 98.646 64.528C99.926 61.584 101.558 58.896 103.542 56.464C105.526 54.032 107.67 52.08 109.974 50.608C112.278 49.072 114.518 48.304 116.694 48.304C119.126 48.304 120.918 49.104 122.07 50.704C123.222 52.304 123.798 54.32 123.798 56.752C123.798 59.696 123.126 62.704 121.782 65.776C121.014 67.504 119.926 69.424 118.518 71.536C117.11 73.584 115.51 75.472 113.718 77.2C114.102 77.904 114.646 78.512 115.35 79.024C116.054 79.472 117.014 79.696 118.23 79.696C119.766 79.696 121.206 79.056 122.55 77.776C123.958 76.496 125.238 74.96 126.39 73.168C127.542 71.312 128.566 69.456 129.462 67.6C130.358 65.744 131.094 64.24 131.67 63.088C131.862 62.704 132.182 62.512 132.63 62.512C132.886 62.512 133.078 62.64 133.206 62.896C133.334 63.088 133.302 63.408 133.11 63.856C132.726 64.816 132.086 66.256 131.19 68.176C130.294 70.032 129.206 71.984 127.926 74.032C126.646 76.016 125.174 77.712 123.51 79.12C121.846 80.528 119.99 81.232 117.942 81.232C116.534 81.232 115.318 81.008 114.294 80.56C113.27 80.048 112.438 79.44 111.798 78.736C110.454 79.76 109.11 80.56 107.766 81.136C106.422 81.712 105.078 82 103.734 82ZM105.174 79.888C106.902 79.888 108.758 79.056 110.742 77.392C110.23 76.624 109.846 75.824 109.59 74.992C109.334 74.16 109.206 73.392 109.206 72.688C109.206 71.536 109.462 70.544 109.974 69.712C110.55 68.88 111.414 68.464 112.566 68.464C113.398 68.464 114.07 68.784 114.582 69.424C115.158 70 115.446 70.672 115.446 71.44C115.446 71.632 115.414 71.824 115.35 72.016C115.35 72.144 115.318 72.304 115.254 72.496C116.342 71.024 117.366 69.296 118.326 67.312C120.438 62.768 121.494 59.024 121.494 56.08C121.494 54.608 121.206 53.456 120.63 52.624C120.054 51.792 119.19 51.376 118.038 51.376C116.694 51.376 115.222 51.952 113.622 53.104C112.086 54.256 110.582 55.792 109.11 57.712C107.702 59.632 106.454 61.776 105.366 64.144C104.342 66.32 103.51 68.432 102.87 70.48C102.294 72.464 102.006 74.192 102.006 75.664C102.006 76.944 102.262 77.968 102.774 78.736C103.286 79.504 104.086 79.888 105.174 79.888ZM122.258 82.48C124.626 77.936 126.866 73.392 128.978 68.848C131.09 64.24 133.234 59.888 135.41 55.792C136.69 53.488 137.746 51.888 138.578 50.992C139.474 50.032 140.658 49.552 142.13 49.552C142.642 49.552 143.186 49.648 143.762 49.84C144.338 49.968 144.914 50.032 145.49 50.032C145.874 50.032 146.162 50 146.354 49.936C145.458 50.448 144.306 51.728 142.898 53.776C141.49 55.76 140.05 58.064 138.578 60.688C137.106 63.312 135.794 65.776 134.642 68.08C135.858 66.608 137.106 65.136 138.386 63.664C139.73 62.192 141.202 60.784 142.802 59.44C144.21 58.224 145.682 56.912 147.218 55.504C148.818 54.032 150.386 52.784 151.922 51.76C153.458 50.736 154.802 50.224 155.954 50.224C156.402 50.224 156.69 50.256 156.818 50.32C158.034 50.832 158.642 51.664 158.642 52.816C158.642 53.2 158.482 53.776 158.162 54.544C157.33 56.72 156.242 58.96 154.898 61.264C153.618 63.504 152.402 65.776 151.25 68.08C152.21 66.928 153.394 65.52 154.802 63.856C156.274 62.192 157.746 60.72 159.218 59.44C160.626 58.16 162.418 56.816 164.594 55.408C166.77 54 168.914 52.784 171.026 51.76C173.138 50.736 174.834 50.224 176.114 50.224C176.562 50.224 176.882 50.256 177.074 50.32C177.074 50.32 176.722 50.96 176.018 52.24C175.314 53.456 174.418 55.088 173.33 57.136C172.306 59.12 171.25 61.264 170.162 63.568C169.074 65.808 168.082 67.984 167.186 70.096C166.354 72.144 165.81 73.872 165.554 75.28C165.362 76.112 165.266 76.88 165.266 77.584C165.266 78.608 165.458 79.28 165.842 79.6C166.226 79.92 166.642 80.08 167.09 80.08C168.37 80.08 169.682 79.408 171.026 78.064C172.37 76.72 173.65 75.12 174.866 73.264C176.146 71.344 177.266 69.488 178.226 67.696C179.186 65.84 179.89 64.432 180.338 63.472C180.722 62.768 181.106 62.416 181.49 62.416C181.874 62.416 182.066 62.672 182.066 63.184C182.066 63.504 181.97 63.856 181.778 64.24C181.01 65.712 180.082 67.472 178.994 69.52C177.97 71.568 176.786 73.584 175.442 75.568C174.098 77.488 172.594 79.12 170.93 80.464C169.33 81.744 167.602 82.384 165.746 82.384C164.402 82.384 163.026 81.936 161.618 81.04C160.274 80.144 159.602 78.48 159.602 76.048C159.602 74.704 159.89 73.072 160.466 71.152C160.914 69.872 161.586 68.4 162.482 66.736C163.442 65.072 164.594 63.152 165.938 60.976C166.578 59.888 166.898 59.024 166.898 58.384C166.898 57.616 166.514 57.232 165.746 57.232C165.106 57.232 164.21 57.552 163.058 58.192C161.97 58.832 160.594 59.952 158.93 61.552C157.906 62.512 156.69 63.856 155.282 65.584C153.938 67.248 152.562 69.072 151.154 71.056C149.746 73.04 148.53 74.992 147.506 76.912C146.482 78.832 145.81 80.528 145.49 82C144.53 82 143.762 81.616 143.186 80.848C142.61 80.016 142.322 79.056 142.322 77.968C142.322 77.776 142.322 77.584 142.322 77.392C142.322 77.2 142.354 76.976 142.418 76.72C142.738 74.736 143.25 72.88 143.954 71.152C144.658 69.424 145.458 67.632 146.354 65.776C147.058 64.432 147.762 62.992 148.466 61.456C149.17 59.856 149.522 58.64 149.522 57.808C149.522 57.296 149.33 57.04 148.946 57.04C148.498 57.04 147.762 57.392 146.738 58.096C145.714 58.736 144.306 59.888 142.514 61.552C140.914 63.088 138.962 65.296 136.658 68.176C134.418 71.056 131.954 75.152 129.266 80.464C128.882 81.168 128.434 81.616 127.922 81.808C127.41 81.936 126.61 82 125.522 82C124.818 82 124.242 82 123.794 82C123.282 82.064 122.77 82.224 122.258 82.48ZM200.862 82.288C200.158 82.352 199.358 82.192 198.462 81.808C197.566 81.424 196.766 80.72 196.062 79.696C195.422 78.672 195.102 77.232 195.102 75.376C195.102 73.84 195.39 71.984 195.966 69.808C195.198 71.024 194.206 72.528 192.99 74.32C191.774 76.048 190.462 77.584 189.054 78.928C187.838 80.08 186.686 80.912 185.598 81.424C184.51 81.936 183.518 82.192 182.622 82.192C180.958 82.192 179.614 81.456 178.59 79.984C177.566 78.448 177.054 76.464 177.054 74.032C177.054 71.472 177.694 68.56 178.974 65.296C180.254 62.032 182.334 58.64 185.214 55.12C187.07 52.88 189.31 51.088 191.934 49.744C194.622 48.336 197.246 47.632 199.806 47.632C201.278 47.632 202.686 47.888 204.03 48.4C205.374 48.848 206.558 49.616 207.582 50.704C208.03 51.152 208.254 51.664 208.254 52.24C208.254 52.624 208.094 52.944 207.774 53.2C207.454 53.456 207.038 53.52 206.526 53.392C205.822 51.152 204.318 50.032 202.014 50.032C200.926 50.032 199.678 50.384 198.27 51.088C196.094 52.24 193.822 54.128 191.454 56.752C189.15 59.376 187.134 62.096 185.406 64.912C185.15 65.296 184.734 66.032 184.158 67.12C183.646 68.208 183.134 69.424 182.622 70.768C182.11 72.112 181.758 73.424 181.566 74.704C181.502 75.088 181.47 75.376 181.47 75.568C181.47 75.696 181.47 75.92 181.47 76.24C181.47 78.352 182.27 79.408 183.87 79.408C185.79 79.408 187.966 78 190.398 75.184C192.062 73.136 193.566 70.992 194.91 68.752C196.254 66.512 197.63 64.112 199.038 61.552C199.998 59.824 200.894 58.384 201.726 57.232C202.558 56.08 203.742 55.504 205.278 55.504C205.982 55.504 206.686 55.6 207.39 55.792C208.094 55.984 208.83 56.016 209.598 55.888C209.086 56.4 208.382 57.36 207.486 58.768C206.654 60.176 205.758 61.776 204.798 63.568C203.838 65.36 202.974 67.184 202.206 69.04C201.438 70.896 200.894 72.496 200.574 73.84C200.51 74.224 200.414 74.768 200.286 75.472C200.222 76.176 200.19 76.688 200.19 77.008C200.19 78.8 200.702 79.696 201.726 79.696C202.75 79.696 203.838 79.088 204.99 77.872C206.206 76.656 207.39 75.152 208.542 73.36C209.694 71.568 210.75 69.776 211.71 67.984C212.67 66.128 213.438 64.624 214.014 63.472C214.27 62.832 214.654 62.512 215.166 62.512C215.486 62.512 215.646 62.736 215.646 63.184C215.646 63.376 215.55 63.728 215.358 64.24C214.59 65.84 213.662 67.664 212.574 69.712C211.486 71.696 210.302 73.648 209.022 75.568C207.742 77.424 206.398 78.992 204.99 80.272C203.646 81.488 202.27 82.16 200.862 82.288Z" fill="white"/>
</svg>
