<svg width="91" height="91" viewBox="0 0 91 91" fill="none" xmlns="http://www.w3.org/2000/svg">
<g clip-path="url(#clip0_1_2)">
<path d="M70.3441 14.5244C74.7814 20.2928 77 25.6175 77 31.8297C77 39.373 73.8939 46.4726 66.3506 54.4596C57.9198 63.3341 50.3765 73.0961 50.3765 82.858C50.3765 84.6329 50.8202 86.4078 51.264 88.6265C51.264 89.0702 51.264 89.5139 50.8202 89.9576C50.3765 90.4014 49.9328 89.9576 49.9328 89.5139C45.4955 83.7455 43.2769 78.4208 43.2769 72.2086C43.2769 64.6653 46.383 57.5657 53.9263 49.5787C62.3571 40.7042 69.9004 30.9422 69.9004 21.1803C69.9004 19.4054 69.4567 17.6305 69.013 15.4119C69.013 14.9681 69.0129 14.5244 69.4567 14.0807C69.9004 14.0807 69.9004 14.0807 70.3441 14.5244ZM35.7336 1.21267C38.8397 5.20619 40.1708 9.64344 40.1708 13.637C40.1708 19.4054 37.5085 24.7301 32.1838 30.4985C25.9716 37.1544 20.2032 44.6977 20.2032 51.7973C20.2032 53.1285 20.6469 54.9034 21.0907 55.7908C21.0907 56.2345 21.0907 56.2345 20.6469 56.6783C20.2032 57.122 19.7595 56.6783 19.7595 56.6783C16.2097 52.241 14.8785 47.8038 14.8785 43.8102C14.8785 38.0418 17.5409 32.7171 22.8656 26.9487C29.0777 20.2928 34.8461 12.7495 34.8461 5.64992C34.8461 4.31874 34.4024 2.54384 33.9587 1.65639V0.768944C34.8461 0.768944 35.2899 0.768944 35.7336 1.21267ZM37.5085 35.8232C45.9393 26.9487 53.4826 17.1868 53.4826 7.42482C53.4826 5.64992 53.0389 3.87502 52.5951 1.65639C52.5951 1.21267 52.5951 0.768944 53.0389 0.325219C53.4826 -0.118506 53.9263 0.325219 53.9263 0.768944C58.3636 6.53737 60.5822 11.8621 60.5822 18.0742C60.5822 25.6175 57.4761 32.7171 49.9328 40.7042C41.502 49.5787 33.9587 59.3406 33.9587 69.1026C33.9587 70.8775 34.4024 72.6524 34.8461 74.871C34.8461 75.3147 34.8461 75.7584 34.4024 76.2022C33.9587 76.6459 33.515 76.2022 33.515 75.7584C29.0777 69.99 26.8591 64.6653 26.8591 58.4532C26.8591 50.9098 29.9652 43.8102 37.5085 35.8232Z" fill="url(#paint0_linear_1_2)"/>
</g>
<defs>
<linearGradient id="paint0_linear_1_2" x1="45.9393" y1="0.141422" x2="45.9393" y2="90.1414" gradientUnits="userSpaceOnUse">
<stop stop-color="#FF751F"/>
<stop offset="0.565" stop-color="#7A370A"/>
</linearGradient>
<clipPath id="clip0_1_2">
<rect width="90" height="90" fill="white" transform="translate(0.939262 0.141422)"/>
</clipPath>
</defs>
</svg>
